inDegrees=yes
name=ik_S40_A13_T01
DataType=double
version=3
OpenSimVersion=4.3-2021-08-27-4bc7ad9
endheader
time	pelvis_tilt	pelvis_list	pelvis_rotation	pelvis_tx	pelvis_ty	pelvis_tz	hip_flexion_r	hip_adduction_r	hip_rotation_r	knee_angle_r	knee_angle_r_beta	ankle_angle_r	subtalar_angle_r	mtp_angle_r	hip_flexion_l	hip_adduction_l	hip_rotation_l	knee_angle_l	knee_angle_l_beta	ankle_angle_l	subtalar_angle_l	mtp_angle_l	lumbar_extension	lumbar_bending	lumbar_rotation	arm_flex_r	arm_add_r	arm_rot_r	elbow_flex_r	pro_sup_r	wrist_flex_r	wrist_dev_r	arm_flex_l	arm_add_l	arm_rot_l	elbow_flex_l	pro_sup_l	wrist_flex_l	wrist_dev_l
9.019999999999897	-0.8199464137174055	0.2312458845091478	28.07667069775703	0	0.9399999999999999	0	23.58060522640245	-8.421117875057062	-7.287209858664394	26.64690886859186	0.465076295235805	0	0	0	23.58060522640245	-8.421117875057062	-7.287209858664394	26.64690886859186	0.465076295235805	0	0	0	0.1941192150995792	1.189265801852771	8.219713785184076	52.75531563472747	-29.3915834781969	33.96210524585791	56.92438652586456	173.9096913315692	0	0	88.32343230658915	3.620999212741358	34.76283664676293	17.01657254891668	135.8733873168995	0	0
9.039999999999896	-0.8029209918115948	0.2147286790984075	28.07550787619688	0	0.9399999999999999	0	23.59793965245221	-8.425211467194824	-7.291736625028715	26.66432746268699	0.4653803070538335	0	0	0	23.59793965245221	-8.425211467194824	-7.291736625028715	26.66432746268699	0.4653803070538335	0	0	0	0.2009340099865291	1.166149923027644	8.210790249723699	54.26718338847055	-28.85734552922477	33.02745670945162	58.23980352055148	172.2194698791648	0	0	88.06851606558473	3.672321878469979	34.63151640070875	17.54308002111462	136.6704342816353	0	0
9.059999999999896	-0.7837613440558096	0.2168430889669199	28.14612767368597	0	0.9399999999999999	0	23.61021738148305	-8.428116367364177	-7.294946016059859	26.67665359410295	0.4655954386310755	0	0	0	23.61021738148305	-8.428116367364177	-7.294946016059859	26.67665359410295	0.4655954386310755	0	0	0	0.2175223689059703	1.159667953745174	8.145079736189805	55.59756506762398	-27.9906435835658	32.78171139715435	57.59951452545057	171.5507161871556	0	0	87.92183281763353	3.763174151314124	34.61599970167375	18.26850218699769	137.6785910015054	0	0
9.079999999999895	-0.7412688098283866	0.2046547879828953	28.20237712144122	0	0.9399999999999999	0	23.62163658495363	-8.430811610972418	-7.29792710820661	26.68813159197293	0.4657957674854435	0	0	0	23.62163658495363	-8.430811610972418	-7.29792710820661	26.68813159197293	0.4657957674854435	0	0	0	0.24812146005515	1.129071186065341	8.051110570583386	57.18715678164781	-26.94574979145538	32.53366538861106	57.49759982140593	169.9361297119609	0	0	87.48264264050748	3.966816376260466	34.47943554252101	19.47087110419112	138.7795121948795	0	0
9.099999999999895	-0.7276310805768096	0.1849635457255489	28.30396055422954	0	0.9399999999999999	0	23.63122956199085	-8.43306832945615	-7.300426773226309	26.69779381623789	0.465964405111933	0	0	0	23.63122956199085	-8.43306832945615	-7.300426773226309	26.69779381623789	0.465964405111933	0	0	0	0.2496790498397429	1.10593375717415	7.919335531848477	58.87237145789994	-25.77955848971168	32.38878977844173	57.33942872941972	168.8532777256967	0	0	87.07465431916843	4.331486121182293	34.1794111708552	19.9242888436881	139.2242055278299	0	0
9.119999999999894	-0.6954678745615707	0.204874705441057	28.43774797166197	0	0.9399999999999999	0	23.6422022211691	-8.43565248403173	-7.303288396197352	26.70882591950962	0.4661569516374449	0	0	0	23.6422022211691	-8.43565248403173	-7.303288396197352	26.70882591950962	0.4661569516374449	0	0	0	0.2864662959623265	1.108911706192561	7.752241083942355	60.48806570381989	-24.54086621158214	32.37835427879791	57.02239583321736	168.0943083098113	0	0	86.69510458054198	4.602899630396751	34.07819454781281	20.22756713846639	139.2436582627059	0	0
9.139999999999894	-0.6623770127668861	0.2042075836593002	28.59022491578259	0	0.9399999999999999	0	23.65363968578342	-8.438343710465624	-7.306270176841745	26.72032372000982	0.4663576261129107	0	0	0	23.65363968578342	-8.438343710465624	-7.306270176841745	26.72032372000982	0.4663576261129107	0	0	0	0.3134307405749727	1.093981766674184	7.569918373586264	62.10065642622355	-23.23880320381364	32.41835394256007	56.37888628526184	166.8506529481398	0	0	86.37711035150764	4.896765155726251	34.01515944036752	20.45659024185175	139.3119919074206	0	0
9.159999999999894	-0.6314563531984957	0.199978616865478	28.77879452734884	0	0.9399999999999999	0	23.66553276030615	-8.441139070379242	-7.309369277555743	26.7322792282468	0.4665662890953953	0	0	0	23.66553276030615	-8.441139070379242	-7.309369277555743	26.7322792282468	0.4665662890953953	0	0	0	0.3359396663230982	1.076610747137437	7.350132658201785	63.63940859904883	-21.83192379428331	32.57755504494752	55.331081607835	164.7927586327717	0	0	86.11597010434727	5.204987356185213	33.84533212907941	20.61245267350918	139.3954559877001	0	0
9.179999999999893	-0.5964154039931824	0.2045267341566964	28.99502485297551	0	0.9399999999999999	0	23.68945592485879	-8.446743227693085	-7.315594887481425	26.75631756235409	0.466985837172262	0	0	0	23.68945592485879	-8.446743227693085	-7.315594887481425	26.75631756235409	0.466985837172262	0	0	0	0.3674361395951062	1.063213359756718	7.102612618966036	65.02972802653376	-20.4271500301439	32.8654320665438	54.02122492000756	161.9805159329947	0	0	85.93021709407267	5.481382137041456	33.56113082375199	20.57678769927175	139.8174695362818	0	0
9.199999999999893	-0.5843407349514415	0.2094935057316187	29.26630951633924	0	0.9399999999999999	0	23.7143247359715	-8.452554529688674	-7.322059161795354	26.78131449824588	0.4674221160064838	0	0	0	23.7143247359715	-8.452554529688674	-7.322059161795354	26.78131449824588	0.4674221160064838	0	0	0	0.3777675728570888	1.062055019486594	6.844109528397874	66.33824308324596	-19.12364070947796	33.41003078285815	52.59143349763666	159.1810987893826	0	0	85.65546265447712	5.891211700643925	33.27517506001325	20.81743076842482	139.4358133323859	0	0
9.219999999999892	-0.5595481949488105	0.2001245909404664	29.48450379442989	0	0.9399999999999999	0	23.72454515912532	-8.454943379783574	-7.324715961534334	26.79158847953684	0.4676014308072994	0	0	0	23.72454515912532	-8.454943379783574	-7.324715961534334	26.79158847953684	0.4676014308072994	0	0	0	0.3926203273657111	1.040650983595319	6.597580208098608	67.4527892445597	-17.76989015408542	34.12226943486989	51.22445977707508	157.1346828233139	0	0	85.49475298679819	6.109006337765847	33.00427288306591	20.80150963662953	139.8815998021728	0	0
